<?xml version="1.0" encoding="utf-8"?>
<!-- Generator: Adobe Illustrator 22.1.0, SVG Export Plug-In . SVG Version: 6.00 Build 0)  -->
<svg version="1.1" id="Layer_1" xmlns="http://www.w3.org/2000/svg" xmlns:xlink="http://www.w3.org/1999/xlink" x="0px" y="0px"
	 viewBox="0 0 200 150" style="enable-background:new 0 0 200 150;" xml:space="preserve">
<style type="text/css">
	.st0{fill:#D0E3F5;}
	.st1{fill:#8FA4BA;}
</style>
<g>
	<g>
		<polygon class="st0" points="148.9,40.4 199,79.9 180.9,94.2 148.9,67.6 		"/>
		<polygon class="st1" points="121.8,62.1 148.9,40.4 148.9,67.6 133.4,79.3 		"/>
		<polygon class="st0" points="199,43.4 149,2.8 149,30.6 198.8,71.3 		"/>
		<polygon class="st1" points="99,42.3 149,2.8 149,30.6 111.1,60.6 		"/>
		<polygon class="st0" points="99,42.3 148,82.6 148,109.9 99.2,71.5 		"/>
		<polygon class="st1" points="148,82.6 175,61.1 175,89.3 148,109.9 		"/>
		<polygon class="st1" points="199,79.9 199,106.8 148.8,147.2 148.8,119.6 		"/>
		<polygon class="st0" points="148.8,119.6 99.2,80.7 99.2,108.4 148.8,147.2 		"/>
	</g>
	<g>
		<g>
			<g>
				<path class="st0" d="M19.2,52.6c-0.1-0.5-0.3-1.1-0.6-1.6c-0.3-0.6-0.5-1-0.7-1.3s-0.5-0.8-0.9-1.4l2.7-1.7
					c1.2,1.9,1.9,3.6,2.3,5.1C22,52,22,52.3,22,52.6v0.2c-0.1,1.1-0.8,2-2.1,2.8c-1.6,0.9-3.8,1.5-6.5,1.8c-0.7,0.1-1.4,0.1-1.9,0.1
					c-5.3,0-8.6-1.2-9.8-3.7v0c-0.3-0.7-0.5-1.4-0.5-2.2c0-0.3,0-0.5,0-0.8c0-0.3,0.1-0.5,0.2-0.8c0.1-0.3,0.1-0.5,0.2-0.7
					s0.2-0.4,0.3-0.7C2,48.3,2.1,48.1,2.2,48s0.2-0.3,0.3-0.6c0.2-0.3,0.3-0.5,0.3-0.6l2.5,2.1c-0.5,0.8-0.9,1.5-1.1,2.2
					c-0.1,0.3-0.1,0.5-0.1,0.7c0,0.1,0,0.3,0.1,0.4c0.3,0.6,1.1,1,2.5,1.3c1.3,0.3,3,0.5,4.9,0.5c1.9,0,3.8-0.3,5.8-0.8
					C18,53,18.6,52.8,19.2,52.6z M11.8,46.1l-2,2L7.7,46L9.7,44L11.8,46.1l2-2.1l2.1,2.1l-2.1,2.1L11.8,46.1z"/>
				<path class="st0" d="M27.4,47.7c0,0.4,0,1-0.1,1.8s-0.1,1.4-0.1,1.8c0,0.8,0.1,1.5,0.3,2.1c0.1,0.3,0.3,0.4,0.5,0.5
					c0.2,0.1,0.6,0.1,1,0.1h0.1c0.7,0,1.2,0.4,1.6,1.1c0.1,0.2,0.1,0.4,0.1,0.7c0,0.5-0.2,0.9-0.5,1.2c-0.3,0.3-0.7,0.5-1.2,0.5
					c-0.9,0-1.7-0.1-2.3-0.3c-0.6-0.2-1.2-0.6-1.6-1c-0.4-0.4-0.7-0.9-0.9-1.4c-0.2-0.5-0.3-1.2-0.3-2v-0.2c0-0.8,0-1.7,0-2.9
					c0-3-0.1-5.3-0.2-7c-0.1-0.8-0.2-1.5-0.2-2l3.2-1c0.1,0.3,0.1,0.6,0.2,0.9c0,0.3,0.1,0.6,0.1,0.9c0,0.3,0.1,0.6,0.1,1
					s0,0.7,0.1,1c0,0.2,0,0.6,0,1.1c0,0.5,0,0.8,0,1s0,0.5,0,1.1c0,0.5,0,0.9,0,1V47.7z"/>
				<path class="st0" d="M27.4,55.7c0-0.5,0.2-0.9,0.5-1.2c0.3-0.3,0.8-0.5,1.3-0.5h10.7c0.7,0,1.2,0.3,1.6,1
					c0.1,0.2,0.1,0.4,0.1,0.7c0,0.5-0.2,0.9-0.5,1.2c-0.3,0.3-0.7,0.5-1.2,0.5H29.2c-0.4,0-0.7-0.1-1-0.3c-0.3-0.2-0.5-0.4-0.6-0.7
					C27.5,56.2,27.4,55.9,27.4,55.7z"/>
				<path class="st0" d="M43.8,55.7c-0.6,0.6-1.2,1-1.8,1.3c-0.6,0.3-1.3,0.5-2.2,0.5c-0.5,0-0.9-0.2-1.2-0.5
					c-0.3-0.3-0.5-0.7-0.5-1.2c0-0.5,0.2-0.9,0.5-1.2s0.7-0.5,1.2-0.5c0.9,0,1.6-0.3,2.2-1c0.3-0.3,0.6-0.8,0.9-1.4s0.6-1.1,0.8-1.6
					c0.2-0.5,0.5-0.9,0.9-1.4c0.4-0.5,0.8-0.8,1.3-1.1c0.5-0.2,1-0.4,1.5-0.4c1.2,0,2.3,0.5,3.2,1.5c0.8,1,1.3,2.3,1.3,3.9
					c0,1.6-0.5,2.9-1.4,3.7c-0.4,0.3-0.7,0.6-1.1,0.7c-0.4,0.2-0.8,0.2-1.4,0.2c-0.5,0-1-0.1-1.5-0.2s-0.9-0.3-1.2-0.5
					c-0.3-0.2-0.7-0.4-1.1-0.6C44.1,55.8,43.9,55.7,43.8,55.7z M49,54c0.1,0,0.3-0.1,0.3-0.3c0.1-0.2,0.1-0.4,0.1-0.7
					c0,0,0-0.1,0-0.1c0,0,0-0.1,0-0.1c0-0.5-0.2-1-0.7-1.5c-0.5-0.6-1-0.9-1.5-0.9c-0.1,0-0.2,0.1-0.4,0.4c-0.2,0.3-0.4,0.7-0.7,1.3
					l-0.3,0.7c0.7,0.5,1.6,0.8,2.5,1C48.7,54,48.8,54,49,54L49,54z"/>
				<path class="st0" d="M62.3,56.2c-1.2,0.8-2.7,1.2-4.4,1.2c-2.1,0-3.8-0.8-5.3-2.3l2-2.8c0.5,0.5,1.1,0.9,1.6,1.2
					s1.2,0.4,1.9,0.4c1,0,1.8-0.2,2.4-0.7c-0.4-1-1-2.4-1.9-4.2s-1.5-3.3-1.8-4.2l3.1-1.3l1,2.3c0.6,1.5,1.5,3.6,2.6,6.3
					c0,0.1,0.1,0.1,0.1,0.3c0.1,0.1,0.1,0.2,0.1,0.3c0,0,0.1,0.1,0.1,0.3c0.1,0.1,0.1,0.2,0.1,0.3c0,0,0.1,0.1,0.2,0.2
					c0.1,0.1,0.1,0.2,0.2,0.2s0.1,0.1,0.2,0.1s0.2,0.1,0.3,0.1c0.1,0,0.2,0,0.3,0.1s0.3,0,0.4,0c0.4,0,0.7,0.1,1,0.3
					c0.3,0.2,0.5,0.4,0.6,0.7c0.1,0.2,0.1,0.4,0.1,0.7c0,0.5-0.2,0.9-0.5,1.2c-0.3,0.3-0.7,0.5-1.2,0.5c-0.8,0-1.4-0.1-1.9-0.3
					C63.2,56.9,62.7,56.6,62.3,56.2z"/>
				<path class="st0" d="M63.9,55.7c0-0.5,0.2-0.9,0.5-1.2c0.3-0.3,0.7-0.5,1.2-0.5h2.1c3,0,5.8-0.5,8.4-1.6c0.6-0.2,1.3-0.6,2.2-1
					c-0.5-0.1-1.2-0.4-2.2-0.8c-1-0.4-1.7-0.6-2.2-0.8c-0.5-0.1-1-0.2-1.5-0.2c-0.6,0-1.2,0.3-1.8,0.9c-0.4,0.4-0.8,0.8-1,1.1
					L67.1,50c0.9-1.7,2.2-2.9,3.7-3.5c0.5-0.2,1.1-0.3,1.6-0.3c0.7,0,1.6,0.2,2.5,0.5c0.5,0.2,1.2,0.4,1.9,0.8
					c0.7,0.3,1.4,0.7,2.1,1c0.7,0.3,1.4,0.5,2,0.7c0.4,0.1,0.9,0.1,1.4,0.2l-0.3,3.3l-1.5,0.7c-0.4,0.2-0.9,0.5-1.6,0.8
					c-0.7,0.3-1.2,0.6-1.7,0.8c-0.4,0.2-1,0.5-1.6,0.7c-0.6,0.3-1.2,0.5-1.8,0.7c-0.6,0.2-1.2,0.3-1.8,0.5c-0.7,0.2-1.4,0.3-2.1,0.4
					c-0.7,0.1-1.5,0.1-2.3,0.1h-2.1c-0.5,0-0.9-0.2-1.2-0.5C64.1,56.6,63.9,56.2,63.9,55.7z M72,45.2l-2.4-2.4l2.4-2.4l2.4,2.4
					L72,45.2z"/>
			</g>
			<g>
				<path class="st0" d="M10.7,80.2c-1.2,0.8-2.7,1.2-4.4,1.2c-2.1,0-3.8-0.8-5.3-2.3l2-2.8c0.5,0.5,1.1,0.9,1.6,1.2S5.8,78,6.6,78
					c1,0,1.8-0.2,2.4-0.7c-0.4-1-1-2.4-1.9-4.2s-1.5-3.3-1.8-4.2l3.1-1.3l1,2.3c0.6,1.5,1.5,3.6,2.6,6.3c0,0.1,0.1,0.1,0.1,0.3
					s0.1,0.2,0.1,0.3c0,0,0.1,0.1,0.1,0.3c0.1,0.1,0.1,0.2,0.1,0.3s0.1,0.1,0.2,0.2c0.1,0.1,0.1,0.2,0.2,0.2c0.1,0,0.1,0.1,0.2,0.1
					c0.1,0.1,0.2,0.1,0.3,0.1c0.1,0,0.2,0,0.3,0.1s0.3,0,0.4,0c0.4,0,0.7,0.1,1,0.3c0.3,0.2,0.9,0.4,1.1,0.7
					c0.1,0.2,0.1,0.4,0.1,0.7c0,0.5-0.6,0.9-1,1.2c-0.3,0.3-0.7,0.5-1.2,0.5c-0.8,0-1.4-0.1-1.9-0.3S11.1,80.6,10.7,80.2z"/>
				<path class="st0" d="M19.1,80.3c-1,0.7-2.9,1.1-4.8,1.1h-0.2c-0.5,0-0.9-0.2-1.2-0.5s-0.5-0.7-0.5-1.2s0.2-0.9,0.5-1.2
					s0.7-0.5,1.2-0.5h0.2c2,0,3.5-0.6,3.5-1.9v-0.3c0-0.2-0.1-0.6-0.2-1c-0.1-0.3-0.2-0.7-0.3-1.1l3.1-0.7c0.4,1.1,0.6,2.1,0.6,3.2
					c0,0.5,0.1,1,0.3,1.4c0.2,0.4,0.5,0.6,0.9,0.6c0.7,0,1.2,0.3,1.6,1c0.1,0.2,0.1,0.4,0.1,0.7c0,0.5-0.2,0.9-0.5,1.2
					s-0.7,0.5-1.2,0.5C20.9,81.4,19.9,81.1,19.1,80.3z M18.7,71.1l-2.4-2.4l2.4-2.4l2.4,2.4L18.7,71.1z"/>
				<path class="st0" d="M25.6,79.7c-0.5,0.5-0.9,1-1.4,1.2c-0.5,0.3-1.1,0.4-1.9,0.5h-0.1c-0.5,0-0.9-0.2-1.2-0.5s-0.5-0.7-0.5-1.2
					c0-0.4,0.1-0.7,0.3-1c0.2-0.3,0.4-0.5,0.7-0.6c0.2-0.1,0.4-0.1,0.7-0.1c0.7,0,1.4-0.4,2-1.1c0.3-0.3,0.5-0.7,0.8-1.2
					s0.5-0.9,0.7-1.3c0.2-0.4,0.4-0.8,0.7-1.3c0.3-0.4,0.6-0.8,0.9-1.1c0.7-0.6,1.4-0.8,2.2-0.8h0.1c0.4,0,0.7,0.1,1.1,0.2
					s0.6,0.2,0.9,0.4s0.5,0.3,0.7,0.6c0.2,0.2,0.4,0.5,0.6,0.7s0.3,0.5,0.5,0.8c0.2,0.3,0.3,0.6,0.4,0.8c0.1,0.2,0.2,0.5,0.4,0.9
					c0.4,1,0.8,1.6,1.3,2c0.3,0.2,0.7,0.3,1.1,0.3c0.4,0,0.7,0.1,1,0.3s0.5,0.5,0.6,0.8c0.1,0.2,0.1,0.4,0.1,0.7
					c0,0.5-0.2,0.9-0.5,1.2c-0.3,0.3-0.7,0.5-1.2,0.5c-0.7,0-1.4-0.1-1.9-0.4c-0.5-0.3-1.1-0.7-1.5-1.1c-0.7,1-1.6,1.5-2.8,1.5
					c-1,0-2.1-0.3-3.3-1C26.2,80.1,25.8,79.9,25.6,79.7z M30.6,78.3c0.2,0,0.4-0.1,0.5-0.4c0.1-0.3,0.2-0.6,0.2-0.9
					c0-0.4-0.2-0.8-0.5-1.3c-0.5-0.8-1.1-1.2-1.9-1.2c-0.1,0-0.3,0.2-0.5,0.5c0,0.1-0.2,0.4-0.5,0.9l-0.5,0.9c0.8,0.6,1.7,1,2.6,1.3
					C30.3,78.3,30.5,78.3,30.6,78.3z"/>
				<path class="st0" d="M36.2,81.4c-0.5,0-0.8-0.2-1.2-0.5c-0.3-0.3-0.5-0.7-0.5-1.2c0-0.7,0.3-1.2,1-1.5c0.2-0.1,0.4-0.2,0.6-0.2
					c0.6,0,1-0.1,1.4-0.4c0.4-0.3,0.7-0.7,1-1.2c0.4-0.7,0.8-1.8,1.2-3.5l2.9,0.5c0,0.1-0.1,0.5-0.3,1c-0.1,0.6-0.2,1-0.3,1.4
					C42,76.3,42,76.7,42,77.1c0,0.7,0.2,1.1,0.6,1.1c0.6,0,1.1-0.3,1.5-1c0.6-0.9,1-2.3,1.3-4.2l2.7,0.5c0,0.2-0.1,0.7-0.1,1.3
					c-0.1,0.6-0.1,1.1-0.1,1.5c0,1.3,0.4,1.9,1.3,1.9c0.3,0,0.7-0.1,0.9-0.2s0.5-0.4,0.6-0.6c0.1-0.2,0.2-0.4,0.2-0.6
					c0-0.6-0.2-1.5-0.6-2.6c-0.2-0.6-0.6-1.3-1-2.3l2.7-1.5c0.9,2,1.5,3.7,1.7,5.1c0.1,0.5,0.1,0.9,0.1,1.4c0,1.5-0.4,2.7-1.2,3.5
					c-0.8,0.8-2,1.2-3.6,1.2c-1.3,0-2.4-0.5-3.1-1.5c-0.4,0.5-0.8,0.8-1.3,1.1c-0.5,0.2-1.1,0.4-1.9,0.4h-0.1
					c-1.2,0-2.1-0.5-2.8-1.5c-0.7,0.9-1.9,1.3-3.4,1.3H36.2z M46.4,68.3l-2,2l-2.1-2.1l2.1-2.1L46.4,68.3l2-2.1l2.1,2.1l-2.1,2.1
					L46.4,68.3z M48.3,65.2l-1.9,1.9l-1.9-1.9l1.9-1.9L48.3,65.2z"/>
				<path class="st0" d="M54.6,85.7c1.9-0.4,3.6-1,4.9-1.8c1.3-0.8,2.1-1.6,2.4-2.5c-0.8,0-1.5,0-2.1-0.1c-0.6-0.1-1.2-0.2-1.8-0.4
					c-0.6-0.2-1-0.5-1.4-0.8s-0.7-0.8-0.9-1.3c-0.2-0.5-0.3-1.2-0.3-1.9c0-1.1,0.3-2.2,0.9-3.4c0.2-0.4,0.4-0.7,0.6-0.9
					c0.9-1.1,1.9-1.6,3-1.6c1.2,0,2.3,0.5,3.3,1.6c1.3,1.4,2,3.2,2.2,5.4h0.2c0.7,0,1.3,0.3,1.6,1c0.1,0.2,0.1,0.4,0.1,0.7
					c0,0.5-0.2,0.9-0.5,1.2s-0.7,0.5-1.2,0.5h-0.5c-0.4,1.6-1.2,2.9-2.3,4.1c-1.1,1.1-2.5,2-4.1,2.6c-1,0.4-2.1,0.7-3.3,0.9
					L54.6,85.7z M59.9,74.4c-0.3,0-0.7,0.2-1.1,0.7c-0.4,0.5-0.6,1-0.6,1.5c0,0.2,0.1,0.5,0.2,0.6c0.1,0.2,0.3,0.3,0.5,0.4
					s0.5,0.2,0.7,0.2c0.2,0,0.5,0.1,0.7,0.1c0.3,0,0.4,0,0.4,0h1c0.1,0,0.3,0,0.4,0c-0.2-1.2-0.7-2.2-1.5-3.1
					C60.5,74.6,60.2,74.4,59.9,74.4z"/>
				<path class="st0" d="M71.2,80.8c-1.5,0.4-3.4,0.6-5.6,0.6h-0.1c-0.5,0-0.9-0.2-1.2-0.5c-0.3-0.3-0.5-0.7-0.5-1.2
					c0-0.5,0.2-0.9,0.5-1.2S65,78,65.5,78h0.4c0.2,0,0.5,0,0.8,0s0.6,0,0.7,0c-0.5-0.9-0.8-1.8-0.8-2.8c0-0.8,0.2-1.6,0.5-2.3
					c0.3-0.7,0.7-1.3,1.3-1.7l-0.6-0.3l2.1-3.1c0.4,0.3,0.9,0.6,1.5,0.9c0.6,0.3,1.2,0.6,2.1,0.9s1.4,0.6,1.6,0.7
					c0.2,0.1,0.6,0.3,1.2,0.5c0.6,0.3,1,0.5,1.3,0.6c0.2,0.1,0.6,0.3,1,0.5c0.4,0.2,0.8,0.5,1.1,0.7c0.3,0.2,0.6,0.5,0.8,0.8
					c0.7,0.9,1.1,1.9,1.1,3.2c0,0.9-0.2,1.7-0.7,2.4c-0.4,0.7-1,1.2-1.8,1.7c-0.9,0.5-2.1,0.7-3.8,0.7
					C73.6,81.5,72.2,81.2,71.2,80.8z M71.2,77.4c0.7-0.1,1.3-0.3,1.6-0.8s0.6-1,0.6-1.8c0-0.4-0.2-0.8-0.7-1.3
					c-0.4-0.4-0.7-0.6-1.1-0.7c0,0,0,0-0.1,0s-0.1,0-0.1,0c-0.4,0-0.9,0.3-1.3,0.9c-0.5,0.6-0.7,1.1-0.7,1.7c0,0.4,0.2,0.8,0.7,1.3
					C70.5,76.9,70.9,77.2,71.2,77.4z M76.3,74.5c0,0.8-0.3,1.8-0.8,2.9c-0.1,0.3-0.3,0.6-0.5,0.9h0.1c0.3,0,0.5,0,0.7,0s0.4,0,0.7,0
					c0.3,0,0.5-0.1,0.7-0.1c0.2,0,0.4-0.1,0.6-0.2c0.2-0.1,0.4-0.2,0.5-0.3c0.1-0.1,0.2-0.3,0.3-0.4c0.1-0.2,0.1-0.4,0.1-0.6
					c0-0.1-0.1-0.3-0.2-0.5c-0.1-0.2-0.2-0.3-0.3-0.4c-0.1-0.1-0.2-0.2-0.4-0.3c-0.5-0.4-1-0.8-1.7-1.1V74.5z"/>
			</g>
			<g>
				<path class="st0" d="M6,107.3c-1,0-1.8-0.2-2.6-0.6c-0.8-0.4-1.4-0.9-1.8-1.5c-0.4-0.6-0.6-1.4-0.6-2.3c0-1.4,0.6-2.9,1.9-4.5
					c0.2-0.3,0.4-0.5,0.6-0.7l0.2-0.2c0,0-0.1-0.1-0.2-0.2c-0.1-0.1-0.2-0.2-0.2-0.2L3,97l2.1-2.6c0.5,0.4,1,0.8,1.4,1.2
					c0.5,0.4,1,1,1.7,1.7c1.9,2.1,2.8,4,2.8,5.7c0,0.7-0.1,1.3-0.3,1.8c-0.2,0.5-0.6,1-1,1.3c-0.4,0.4-0.9,0.6-1.4,0.8
					c-0.5,0.2-1.1,0.3-1.8,0.4C6.4,107.3,6.2,107.3,6,107.3z M8.1,102.9c0-0.4-0.3-1-0.8-1.6c-0.5-0.6-1-1.2-1.6-1.8
					c-0.8,0.9-1.3,1.7-1.7,2.5c-0.1,0.3-0.2,0.6-0.2,0.8v0.1c0,0.2,0.1,0.3,0.2,0.5s0.3,0.2,0.6,0.3c0.2,0.1,0.5,0.1,0.7,0.2
					c0.2,0,0.4,0.1,0.7,0.1c0.9,0,1.5-0.2,1.9-0.5C8.1,103.3,8.1,103.1,8.1,102.9z"/>
				<path class="st0" d="M21.5,106.1c-1.2,0.8-2.7,1.2-4.4,1.2c-2.1,0-3.8-0.8-5.3-2.3l2-2.8c0.5,0.5,1.1,0.9,1.6,1.2
					s1.2,0.4,1.9,0.4c1,0,1.8-0.2,2.4-0.7c-0.4-1-1-2.4-1.9-4.2s-1.5-3.3-1.8-4.2l3.1-1.3l1,2.3c0.6,1.5,1.5,3.6,2.6,6.3
					c0,0.1,0.1,0.1,0.1,0.3c0.1,0.1,0.1,0.2,0.1,0.3s0.1,0.1,0.1,0.3c0.1,0.1,0.1,0.2,0.1,0.3c0,0,0.1,0.1,0.2,0.2s0.1,0.2,0.2,0.2
					c0.1,0,0.1,0.1,0.2,0.1c0.1,0.1,0.2,0.1,0.3,0.1c0.1,0,0.2,0,0.3,0.1c0.1,0,0.3,0,0.4,0c0.4,0,0.7,0.1,1,0.3s0.5,0.4,0.6,0.7
					c0.1,0.2,0.1,0.4,0.1,0.7c0,0.5-0.2,0.9-0.5,1.2c-0.3,0.3-0.7,0.5-1.2,0.5c-0.8,0-1.4-0.1-1.9-0.3S21.9,106.5,21.5,106.1z"/>
				<path class="st0" d="M23.1,105.6c0-0.5,0.2-0.9,0.5-1.2c0.3-0.3,0.8-0.5,1.3-0.5h29.8c0.7,0,1.2,0.3,1.6,1
					c0.1,0.2,0.1,0.4,0.1,0.7c0,0.5-0.2,0.9-0.5,1.2s-0.7,0.5-1.2,0.5H24.8c-0.4,0-0.7-0.1-1-0.3s-0.5-0.4-0.6-0.7
					C23.1,106.1,23.1,105.9,23.1,105.6z"/>
				<path class="st0" d="M59.2,106.2c-1,0.7-2.5,1.1-4.4,1.1h-0.2c-0.5,0-0.9-0.2-1.2-0.5s-0.5-0.7-0.5-1.2c0-0.5,0.2-0.9,0.5-1.2
					s0.7-0.5,1.2-0.5h0.2c2,0,3-0.6,3-1.9v-0.3c0-0.2-0.1-0.6-0.2-1c-0.1-0.3-0.2-0.7-0.3-1.1l3.1-0.7c0.4,1.1,0.6,2.1,0.6,3.2
					c0,0.5,0.1,1,0.3,1.4c0.2,0.4,0.5,0.6,0.9,0.6c0.7,0,1.2,0.3,1.6,1c0.1,0.2,0.1,0.4,0.1,0.7c0,0.5-0.2,0.9-0.5,1.2
					c-0.3,0.3-0.7,0.5-1.2,0.5C61,107.3,60,107,59.2,106.2z M58.9,97l-2.4-2.4l2.4-2.4l2.4,2.4L58.9,97z"/>
				<path class="st0" d="M60.5,105.6c0-0.5,0.2-0.9,0.5-1.2c0.3-0.3,0.8-0.5,1.3-0.5h7c0.7,0,1.2,0.3,1.6,1c0.1,0.2,0.1,0.4,0.1,0.7
					c0,0.5-0.2,0.9-0.5,1.2c-0.3,0.3-0.7,0.5-1.2,0.5h-7c-0.4,0-0.7-0.1-1-0.3s-0.5-0.4-0.6-0.7C60.5,106.1,60.5,105.9,60.5,105.6z"
					/>
				<path class="st0" d="M67.5,105.6c0-0.5,0.2-0.9,0.5-1.2c0.3-0.3,0.8-0.5,1.3-0.5h-0.6c0.7,0,1.2,0.3,1.6,1
					c0.1,0.2,0.1,0.4,0.1,0.7c0,0.5-0.2,0.9-0.5,1.2c-0.3,0.3-0.7,0.5-1.2,0.5h0.6c-0.4,0-0.7-0.1-1-0.3s-0.5-0.4-0.6-0.7
					C67.5,106.1,67.5,105.9,67.5,105.6z"/>
				<path class="st0" d="M66.9,105.6c0-0.5,0.2-0.9,0.5-1.2c0.3-0.3,0.8-0.5,1.3-0.5H67c0.7,0,1.2,0.3,1.6,1
					c0.1,0.2,0.1,0.4,0.1,0.7c0,0.5-0.2,0.9-0.5,1.2c-0.3,0.3-0.7,0.5-1.2,0.5h1.7c-0.4,0-0.7-0.1-1-0.3c-0.3-0.2-0.5-0.4-0.6-0.7
					C66.9,106.1,66.9,105.9,66.9,105.6z"/>
				<path class="st0" d="M65.2,106.8c-0.3-0.3-0.5-0.7-0.5-1.2c0-0.5,0.2-0.9,0.5-1.2s0.7-0.5,1.2-0.5h1.7c1.3,0,2.3-0.2,3.2-0.5
					c0.3-0.1,0.5-0.2,0.6-0.3c0.1-0.1,0.2-0.3,0.2-0.6c0-0.3-0.1-0.7-0.2-1.1c-0.1-0.4-0.3-0.7-0.5-1.1c-0.2-0.4-0.4-0.9-0.7-1.4
					c-0.3-0.5-0.4-0.9-0.5-1l3.1-1.5c0.7,1.3,1.3,2.8,1.6,4.6c0.1,0.6,0.2,1,0.2,1.4c0,0.7-0.1,1.4-0.4,2c-0.6,1.3-1.6,2.2-3.1,2.7
					c-0.7,0.2-1.6,0.3-2.7,0.3h-2.4C65.9,107.3,65.5,107.2,65.2,106.8z"/>
				<path class="st0" d="M78.1,88c-0.1,0-0.2,0-0.3,0c-0.1,0-0.2,0.1-0.3,0.1c-0.1,0.1-0.1,0.1-0.2,0.2c-0.1,0-0.1,0.1-0.2,0.2
					S77,88.7,77,88.8c0,0-0.1,0.1-0.1,0.3c-0.1,0.1-0.1,0.2-0.1,0.3L75,88.8c0-0.1,0-0.2,0.1-0.3s0.1-0.3,0.2-0.4s0.1-0.2,0.1-0.3
					c0.2-0.4,0.5-0.8,0.8-1.1s0.8-0.5,1.2-0.6c0.2,0,0.2,0,0.3,0H78c0.5,0,1.1,0.1,1.7,0.4l0.3,0.2c0.4,0.2,0.6,0.2,0.8,0.2
					c0.1,0,0.3,0,0.3-0.1c0.3-0.2,0.6-0.5,1-1l1.7,1.1c-0.2,0.3-0.5,0.7-0.9,1.1c-0.7,0.7-1.4,1-2.1,1h-0.2L80,88.7
					c-0.6-0.3-1.1-0.5-1.4-0.6C78.5,88,78.3,88,78.1,88z M77.8,107.4c0.2-3.1,0.3-5.5,0.3-7.2c0-3.5-0.2-6.3-0.5-8.5l-0.1-0.9
					l3.4-1.1c0.1,0.2,0.1,0.4,0.2,0.7c0,0.3,0.1,0.5,0.1,0.7s0,0.5,0.1,0.8s0,0.6,0.1,0.8c0.2,2.3,0.3,4.9,0.3,7.6
					c0,2.2-0.1,4.5-0.2,6.7L77.8,107.4z"/>
			</g>
		</g>
		<polygon class="st0" points="67.3,111 65.3,113 63.2,110.9 65.3,108.8 67.3,110.9 69.4,108.8 71.4,110.9 69.4,113 		"/>
	</g>
</g>
</svg>
